# xmcd CD database file
#
# Track frame offsets:
#	150
#	22644
#	43972
#	66455
#
# Disc length: 1167 seconds
#
# Revision: 1
# Processed by: cddbd v1.5.2PL0 Copyright (c) Steve Scherf et al.
# Submitted via: CDex 1.70beta2
#
DISCID=2f048d04
DTITLE=EXILE - I Believe
DYEAR=2007
DGENRE=Japanese Pop
TTITLE0=I Believe
TTITLE1=君がいるから
TTITLE2=I Believe(Instrumental)
TTITLE3=君がいるから(Instrumental)
EXTD=YEAR: 2007
EXTT0=
EXTT1=
EXTT2=
EXTT3=
PLAYORDER=
